<?xml version="1.0" encoding="UTF-8" standalone="no"?>
<!-- Created with Inkscape (http://www.inkscape.org/) -->

<svg
   id="Half Life 2 logo"
   version="1.1"
   inkscape:version="0.48.1 "
   width="227.674"
   height="194.50301"
   sodipodi:docname="Half_Life_2_logo.svg"
   style="display:inline"
   inkscape:export-filename="CZ logo.png"
   inkscape:export-xdpi="107.94382"
   inkscape:export-ydpi="107.94382"
   viewBox="0 0 227.67449 194.50343"
   xmlns:inkscape="http://www.inkscape.org/namespaces/inkscape"
   xmlns:sodipodi="http://sodipodi.sourceforge.net/DTD/sodipodi-0.dtd"
   xmlns="http://www.w3.org/2000/svg"
   xmlns:svg="http://www.w3.org/2000/svg"
   xmlns:rdf="http://www.w3.org/1999/02/22-rdf-syntax-ns#"
   xmlns:cc="http://creativecommons.org/ns#"
   xmlns:dc="http://purl.org/dc/elements/1.1/">
  <metadata
     id="metadata">
    <rdf:RDF>
      <cc:Work
         rdf:about="">
        <dc:format>image/svg+xml</dc:format>
        <dc:type
           rdf:resource="http://purl.org/dc/dcmitype/StillImage" />
      </cc:Work>
    </rdf:RDF>
  </metadata>
  <defs
     id="defs">
    <filter
       inkscape:collect="always"
       id="filter3701"
       color-interpolation-filters="sRGB"
       x="-0.0055580616"
       y="-0.0065182887"
       width="1.0111161"
       height="1.0130366">
      <feGaussianBlur
         inkscape:collect="always"
         stdDeviation="0.52146311"
         id="feGaussianBlur3703" />
    </filter>
    <filter
       inkscape:collect="always"
       id="filter10192"
       x="-0.0042329522"
       y="-0.010299554"
       width="1.0084659"
       height="1.0205991">
      <feGaussianBlur
         inkscape:collect="always"
         stdDeviation="0.39039062"
         id="feGaussianBlur10194" />
    </filter>
  </defs>
  <sodipodi:namedview
     pagecolor="#ffffff"
     bordercolor="#666666"
     borderopacity="1"
     objecttolerance="10"
     gridtolerance="10"
     guidetolerance="10"
     inkscape:pageopacity="0"
     inkscape:pageshadow="2"
     inkscape:window-width="1920"
     inkscape:window-height="1018"
     id="namedview4"
     showgrid="false"
     inkscape:zoom="1"
     inkscape:cx="-20.157974"
     inkscape:cy="125.93575"
     inkscape:window-x="-8"
     inkscape:window-y="-8"
     inkscape:window-maximized="1"
     inkscape:current-layer="layer1"
     inkscape:showpageshadow="2"
     inkscape:pagecheckerboard="0"
     inkscape:deskcolor="#d1d1d1" />
  <g
     inkscape:groupmode="layer"
     id="layer1"
     inkscape:label=""
     style="display:inline"
     transform="translate(-19.345032,-35.771088)">
    <path
       style="opacity:1;fill:#434344;fill-opacity:1;stroke:none;filter:url(#filter3701)"
       d="m 206.35501,166.66878 c 29.61008,-68.917129 39.41202,-91.665603 39.41202,-99.433279 0,-9.30028 -4.95171,-17.901662 -12.10772,-23.310182 C 225.0208,37.396322 226.92415,37.583948 167,37.354242 c -59.92415,-0.229706 2.61589,-0.331643 -50.40345,-0.331643 -53.019343,0 -96.000007,42.980664 -96.000007,96.000001 0,53.01933 42.980664,96 96.000007,96 53.01933,0 76.62305,-34.74239 89.75846,-62.35382 z"
       id="path3616"
       inkscape:connector-curvature="0" />
    <path
       style="fill:#cd970c;fill-opacity:1;stroke:none"
       d="m 116.75,55.1875 c -42.834839,0 -77.5625,34.727674 -77.5625,77.5625 0,42.83483 34.727661,77.5625 77.5625,77.5625 42.83483,0 77.5625,-34.72767 77.5625,-77.5625 0,-42.834826 -34.72767,-77.5625 -77.5625,-77.5625 z"
       id="path3614"
       inkscape:connector-curvature="0"
       sodipodi:nodetypes="sssss" />
    <path
       id="path0"
       fill="#000000"
       fill-rule="evenodd"
       stroke="none"
       d="m 141.47949,192.51997 c 0.72767,0 1.31037,-0.14496 1.74812,-0.29277 0.43488,-0.14498 0.87264,-0.57987 1.16256,-1.16256 0.21319,-0.32121 0.34963,-0.79591 0.34963,-1.37009 l -0.0569,-0.66797 c -0.14782,-0.72768 -0.5827,-1.74527 -1.16542,-2.76573 -0.58268,-1.01759 -1.45533,-2.183 -2.76572,-3.49338 -0.5827,-0.28993 -1.16255,-0.57986 -1.74526,-1.0176 -1.31038,-0.72768 -2.18301,-1.45533 -2.9107,-2.32798 -0.14496,-1.02045 -0.43773,-1.74811 -0.58269,-2.18302 -0.14497,-0.43773 -0.28993,-1.02045 -0.28993,-1.89307 0,-0.28993 0.14496,-0.58273 0.43489,-1.01762 0.14496,-0.43774 0.43773,-0.72764 0.87264,-1.1654 0.43773,-0.28994 0.72768,-0.5827 1.02045,-1.0176 0.28992,-0.43775 0.43489,-0.72767 0.43489,-1.02045 0,-1.45534 -0.14497,-3.05565 -0.28993,-4.80093 -0.28993,-1.6003 -0.5827,-3.34842 -1.01761,-5.09368 l -2.18299,-8.73204 -7.85943,-9.75252 1.45534,-2.47295 c -0.29277,-1.01759 -0.5827,-2.183 -1.02045,-3.20061 l -1.45534,-2.76572 c -0.57986,-1.02045 -1.30753,-1.89307 -2.0352,-2.62075 -1.02045,-1.6003 -2.18301,-3.05566 -3.20346,-4.07326 -0.87263,-1.02043 -1.74527,-1.74812 -2.76572,-2.47579 -0.57418,-0.40931 -1.05455,-0.58839 -1.49513,-0.58839 -0.34394,0 -0.65944,0.10797 -0.97781,0.29847 l 0.14496,-5.96635 c 0,-0.1478 0,-0.43774 0.14499,-0.72766 0.14779,-0.1478 0.14779,-0.43775 0.14779,-0.72768 l 0.28992,-0.58271 c 0.14497,-0.43773 0.43775,-0.58269 0.72768,-0.58269 0.14496,0 0.43774,-0.14497 0.5827,-0.5827 l 0.28993,-1.45536 c 0,-0.58269 0,-1.16257 0.14497,-1.74526 0,-0.5827 0,-1.16541 0.14781,-1.60031 0.14497,-0.43774 0.28994,-0.58269 0.57986,-0.58269 0.43775,0 0.72766,-0.43775 0.87546,-1.45534 0.14498,-0.43776 0.14498,-0.87264 0.14498,-1.45536 l 8.00439,0.58272 c 0.72767,-0.29278 1.31038,-0.58272 1.89026,-1.02045 1.31036,-0.72769 2.3308,-1.45535 3.20344,-2.18302 l 1.16256,-0.58271 2.47578,-2.47294 c 0.43491,-0.43774 0.87264,-0.5827 1.01762,-0.72767 0.14497,0 0.29277,0 0.43774,0.14497 l 0.34393,0.11084 0.67367,-0.11084 c 0.58271,0 1.16541,0 1.6003,-0.14497 0.43776,0 0.72768,0 1.16541,-0.14497 2.16881,-0.72482 1.29047,-0.51448 2.47295,-2.620748 l 0.43774,-0.582703 0.10227,-0.05123 0.33542,0.633875 c 0.14497,0.727665 0.57987,2.183016 1.30754,4.221046 0.58272,2.18302 1.74813,4.51099 3.3484,7.13176 l 3.05567,-1.45536 -2.6179,-5.23865 c -0.72769,-1.31037 -1.16542,-2.76571 -1.60317,-4.221061 -0.2757,-0.923794 -0.37804,-1.728211 -0.37804,-2.381976 l 0.0881,-0.966451 c 0.28993,0 0.58271,0 1.0176,-0.14496 l 2.18301,-0.872632 c 0.72769,-0.437744 1.16542,-1.020449 1.31038,-1.748122 0.14497,-0.434898 0.14497,-0.727666 0.14497,-1.162568 h 14.99116 v -3.05565 h -3.78332 v -4.948685 h -2.18301 v 2.32798 h -5.0937 v -2.183014 h -1.31037 v 1.893082 h -4.94874 v -3.058491 h -1.0176 v -0.579864 h -0.87265 v 1.745274 h -1.02043 v 0.872636 h -6.1113 v -1.017602 h -5.53144 v -2.038029 h -2.91068 v 1.017603 h -5.23866 l -1.01761,1.165411 -1.31036,2.038047 h -2.91069 l 0.4349,-2.327979 -0.4349,-1.893082 0.5827,-1.310376 3.34558,-1.310378 -1.45535,-1.600306 c -0.28991,-1.745274 -0.87265,-3.345582 -1.74527,-4.655957 -0.72766,-1.165412 -1.74812,-2.183017 -3.05564,-3.20346 -1.14553,-0.761784 -2.50993,-1.190997 -4.19267,-1.190997 l -0.75609,0.02843 c -1.02044,0 -2.18302,0 -3.20345,0.144965 -1.16257,0.144966 -2.183,0.289932 -3.20062,0.727672 -1.01759,0.43774 -1.89308,1.16541 -2.62076,2.038048 -0.72766,0.872637 -1.30751,2.038048 -1.74527,3.493389 l 0.14499,7.856576 0.58269,0.292772 c 0.14497,0.144965 0.28993,0.144965 0.28993,0.289932 0,0.144965 0,0.144965 -0.14496,0.144965 -0.14497,0.147808 -0.72766,0.292773 -1.45535,0.43774 -0.72767,0.144965 -1.31039,0.437739 -1.60029,0.582705 l -0.72769,0.108001 -1.0773,-0.16202 c -0.369509,0 -0.778834,0.16202 -1.105703,0.488904 l -3.638366,4.366026 c -1.310377,1.748115 -2.038039,3.78616 -2.183009,5.96917 0,0.727674 0,2.035214 -0.144969,3.638366 l -0.437736,5.528586 -0.582713,5.6764 c -0.14496,1.89309 -0.434892,3.34841 -0.727669,4.36603 -0.289925,1.0176 -0.579862,2.18302 -0.72767,3.49339 -0.144967,1.31037 -0.289925,2.76573 -0.289925,4.07326 l -0.108003,1.96697 0.108003,1.96416 c 0.144958,1.31037 0.289925,2.47294 0.582702,3.49337 -1.310381,4.21823 -2.475788,8.14937 -3.493392,12.07766 -1.017603,3.34841 -1.893081,6.69401 -2.620751,10.18738 -0.872637,3.49341 -1.600309,6.40409 -2.035207,8.58708 l -1.893081,1.60033 c -0.582706,0.43771 -1.310377,1.02044 -2.038047,1.74811 l -2.327979,2.32799 -0.108002,0.43487 0.167706,1.43829 c 0,0.39513 -0.102332,0.64242 -0.204658,0.74475 -1.310376,1.31035 -2.475789,2.62073 -3.348424,3.63834 -1.017601,1.16542 -1.745274,2.33083 -2.183014,3.4934 -0.144965,0.14495 -0.144965,0.43773 -0.144965,0.87261 0,0.2928 0,0.7277 0.144965,1.16543 0,0.43774 0.144967,1.0176 0.292774,1.60032 l 0.06253,0.0967 0.665138,-0.82431 0.423524,-0.20468 0.156339,0.0598 c 0.147807,0.14499 0.292773,0.58273 0.437739,1.31039 0.144966,1.45534 0.727671,2.76572 1.600308,4.07325 0.872638,1.31037 2.183015,2.03805 3.93113,2.18302 1.017601,0.14781 2.035206,0.14781 2.910683,0.14781 0.727671,0 1.455342,-0.14781 2.183015,-0.29278 0.579862,-0.14496 1.017601,-0.4349 1.162566,-0.87263 l 0.05969,-0.34961 -0.204658,-0.66799 -0.872637,-0.43775 -1.020447,-0.28992 c -0.434896,-0.14783 -0.57986,-0.29277 -0.57986,-0.43776 0,-0.58268 0,-1.16541 -0.147808,-1.89307 l -0.579865,-1.74526 -0.545751,-2.07501 0.108026,-0.25298 c 0.33825,0.25298 0.775992,0.4093 1.281951,0.4093 l 1.190991,-0.26433 c 1.020446,-0.28994 2.183016,-0.72767 3.348425,-1.31038 l 2.91068,-1.74526 1.600316,-1.16545 c 0.727668,-0.72766 1.600311,-1.89022 2.327985,-3.20059 0.727663,-1.31038 1.748111,-3.49339 2.765703,-6.694 0.437754,-1.60314 1.310387,-3.63835 2.327989,-6.25911 l 3.058471,-7.56665 3.78334,-9.02482 16.00874,17.90184 c 0.28995,2.03804 0.58273,4.07324 1.0176,5.96635 0.29279,1.60029 0.72769,3.34842 1.16544,5.09368 0.43489,1.89308 0.87263,3.49339 1.31035,4.80376 0.14499,0.43489 0.57987,0.57987 1.01763,0.72768 0.43773,0.14497 0.72766,0.4349 0.87263,0.72766 l 0.29277,0.43491 0.4349,1.16541 c 0.29277,0.87263 0.58269,2.03804 0.72768,3.49341 l 0.0881,1.93286 c 0,1.21658 -0.10238,2.60939 -0.37803,4.17842 l 1.01759,0.28994 c 0.29277,0.14779 0.58271,0.14779 1.02045,0.14779 -0.14782,0.14499 -0.14782,0.43491 -0.14782,0.57986 0,0.43775 0,0.72768 0.14782,0.87548 1.0176,1.01762 2.03522,2.03522 3.34558,2.9107 1.16541,1.01759 2.32798,1.45534 3.49339,1.45534 0.87263,0.14496 1.74527,0.14496 2.47294,0.14496 z"
       style="fill:#434344;fill-opacity:1;stroke-width:0.284246" />
    <path
       id="path1"
       fill="#cccccc"
       fill-rule="evenodd"
       stroke="none"
       d="m 120.35957,100.52066 0.48552,-2.375229 c 0.36414,-1.639812 2.22767,-2.122949 3.77942,-2.741741 0.4046,-0.164218 1.01388,-0.223723 1.82783,-0.183264 1.62077,0.08092 3.61758,0.183264 5.84763,0.183264 -0.64498,1.287572 -4.54578,2.905967 -5.84763,3.16776 -0.97579,0.323678 -1.38277,1.58507 -2.19434,1.58507 -0.51408,0.25704 -2.23482,0.36414 -3.89843,0.36414 z"
       style="fill:#cd970c;fill-opacity:1;stroke-width:0.237999" />
    <text
       xml:space="preserve"
       style="font-weight:bold;line-height:0%;font-family:sans-serif;-inkscape-font-specification:'Sans, Bold';fill:#cd970c;fill-opacity:1;stroke-width:0.60226"
       x="180.47975"
       y="78.192467"
       id="text1"><tspan
         sodipodi:role="line"
         id="tspan1"
         x="180.47975"
         y="78.192467"
         style="font-size:38.5447px;line-height:1.25;font-family:sans-serif;fill:#cd970c;fill-opacity:1;stroke-width:0.60226">CZ</tspan></text>
    <path
       style="opacity:0.13;fill:#ffffff;fill-opacity:1;stroke:none;filter:url(#filter10192)"
       d="m 116.59375,37.03125 c -43.657972,0 -80.503985,29.137975 -92.15625,69.03125 24.527505,12.63114 57.037824,20.845 99.625,21.9375 50.91059,-1.60205 85.38685,-9.73631 108.78125,-23.46875 9.26868,-22.295957 12.9375,-32.609363 12.9375,-37.28125 0,-9.30028 -4.96899,-17.90398 -12.125,-23.3125 -8.63851,-6.528997 -6.7321,-6.364044 -66.65625,-6.59375 -59.92415,-0.229706 2.61309,-0.3125 -50.40625,-0.3125 z"
       id="path3605"
       inkscape:connector-curvature="0" />
  </g>
</svg>
